<svg width="250" height="324" viewBox="0 0 250 324" fill="none" xmlns="http://www.w3.org/2000/svg">
<path d="M0 0L162.188 8.43754V108.004H0V0Z" fill="#0075BC"/>
<path d="M0 323.994L162.188 315.556V215.99H0V323.994Z" fill="#E53312"/>
<path d="M17.6386 186.598C5.32948 186.598 0.0169543 178.126 0.0169543 166.997C0.0169543 149.462 8.28088 137.448 22.9511 137.448C35.2428 137.448 40.4685 145.921 40.4685 157.049C40.4685 174.48 32.2914 186.598 17.6212 186.598M21.9615 148.386C15.2774 148.386 11.9267 157.24 11.9267 165.712C11.9267 172.414 14.3747 175.66 18.524 175.66C25.3122 175.66 28.5588 166.789 28.5588 158.334C28.5588 151.632 26.1976 148.386 21.9615 148.386Z" fill="#0075BC"/>
<path d="M64.0967 186.598C51.805 186.598 46.4751 178.126 46.4751 166.997C46.4751 149.462 54.739 137.448 69.4092 137.448C81.7009 137.448 86.9266 145.921 86.9266 157.049C86.9266 174.48 78.7495 186.598 64.0793 186.598M68.4196 148.386C61.7356 148.386 58.3849 157.24 58.3849 165.712C58.3849 172.414 60.8328 175.66 64.9821 175.66C71.7703 175.66 75.0169 166.789 75.0169 158.334C75.0169 151.632 72.6558 148.386 68.4196 148.386Z" fill="#0075BC"/>
<path d="M121.581 149.862C118.733 148.577 115.869 147.605 112.518 147.605C108.976 147.605 106.129 148.889 106.129 151.928C106.129 154.098 107.605 155.174 109.48 156.06L114.983 158.716C120.209 161.181 123.16 164.723 123.16 170.33C123.16 179.584 115.678 186.581 104.758 186.581C99.4451 186.581 94.7228 185.591 90.4867 183.716L94.3235 173.664C97.5701 175.14 100.817 176.528 104.549 176.528C108.785 176.528 111.042 174.653 111.042 171.997C111.042 170.035 110.157 168.751 107.987 167.674L102.084 164.723C97.761 162.553 94.6013 159.497 94.6013 153.004C94.6013 143.264 103.056 137.448 112.813 137.448C117.935 137.448 121.581 138.247 125.504 139.81L121.563 149.862H121.581Z" fill="#0075BC"/>
<path d="M160.955 148.577H148.854L146.389 168.073C145.903 171.719 145.503 175.452 150.625 175.452C152.691 175.452 155.052 174.566 156.337 173.872L159.201 183.039C155.85 184.914 152.309 186.285 147.1 186.285C137.066 186.285 133.021 179.584 134.201 170.226L136.962 148.559H130.173L131.163 140.191L138.159 138.611L139.132 130.434L151.146 128.959L150.069 138.698H162.17L160.989 148.542L160.955 148.577Z" fill="#0075BC"/>
<path d="M217.849 185.538H205.921L209.567 155.365C210.053 151.51 209.168 147.76 204.237 147.76C199.602 147.76 196.65 151.806 196.65 151.806L192.501 185.538H180.47L184.706 151.024L184.619 139.479L196.442 138.003V143.42H196.546C196.546 143.42 201.477 137.396 209.967 137.396C219.342 137.396 222.987 144.601 221.911 152.986L217.866 185.521L217.849 185.538Z" fill="#0075BC"/>
<path d="M241.719 185.539H229.792L236.406 131.094L236.302 119.653L250 118.073L241.719 185.539Z" fill="#0075BC"/>
</svg>
