<svg xmlns="http://www.w3.org/2000/svg" xmlns:xlink="http://www.w3.org/1999/xlink" width="2000" zoomAndPan="magnify" viewBox="0 0 1500 1499.999933" height="2000" preserveAspectRatio="xMidYMid meet" version="1.0"><defs><clipPath id="2abb8a9a6b"><path d="M 139.8125 213.035156 L 1360.570312 213.035156 L 1360.570312 1286.964844 L 139.8125 1286.964844 Z M 139.8125 213.035156 " clip-rule="nonzero"/></clipPath><clipPath id="ba0ac78217"><path d="M 969.667969 213.035156 C 1182.015625 225.238281 1350.425781 393.648438 1360.1875 603.554688 L 1360.1875 710.949219 C 1350.425781 918.414062 1182.015625 1086.824219 974.550781 1086.824219 L 667.015625 1086.824219 C 610.875 1152.726562 549.859375 1211.304688 479.074219 1260.117188 L 432.703125 1286.964844 C 408.292969 1286.964844 403.414062 1272.320312 410.734375 1247.914062 C 427.820312 1194.21875 425.378906 1138.082031 405.851562 1086.824219 L 398.53125 1064.859375 C 249.644531 1016.042969 142.25 874.480469 139.8125 710.949219 L 139.8125 601.113281 C 139.8125 393.648438 310.664062 225.238281 530.332031 213.035156 L 974.550781 213.035156 Z M 969.667969 213.035156 " clip-rule="nonzero"/></clipPath><clipPath id="3d305964e5"><path d="M 0.8125 0.0351562 L 1221.320312 0.0351562 L 1221.320312 1073.964844 L 0.8125 1073.964844 Z M 0.8125 0.0351562 " clip-rule="nonzero"/></clipPath><clipPath id="384aa9d293"><path d="M 830.667969 0.0351562 C 1043.015625 12.238281 1211.425781 180.648438 1221.1875 390.554688 L 1221.1875 497.949219 C 1211.425781 705.414062 1043.015625 873.824219 835.550781 873.824219 L 528.015625 873.824219 C 471.875 939.726562 410.859375 998.304688 340.074219 1047.117188 L 293.703125 1073.964844 C 269.292969 1073.964844 264.414062 1059.320312 271.734375 1034.914062 C 288.820312 981.21875 286.378906 925.082031 266.851562 873.824219 L 259.53125 851.859375 C 110.644531 803.042969 3.25 661.480469 0.8125 497.949219 L 0.8125 388.113281 C 0.8125 180.648438 171.664062 12.238281 391.332031 0.0351562 L 835.550781 0.0351562 Z M 830.667969 0.0351562 " clip-rule="nonzero"/></clipPath><clipPath id="7c49436a7c"><rect x="0" width="1222" y="0" height="1074"/></clipPath><clipPath id="a7f4d5f1d4"><path d="M 304.191406 148.742188 L 954.605469 148.742188 L 954.605469 379 L 304.191406 379 Z M 304.191406 148.742188 " clip-rule="nonzero"/></clipPath><clipPath id="cb0e648c2d"><path d="M 879.605469 148.742188 L 378.484375 148.742188 C 358.59375 148.742188 339.515625 156.644531 325.453125 170.710938 C 311.386719 184.777344 303.484375 203.851562 303.484375 223.742188 L 303.484375 307.914062 C 303.484375 327.804688 311.386719 346.878906 325.453125 360.945312 C 339.515625 375.011719 358.59375 382.914062 378.484375 382.914062 L 879.605469 382.914062 C 899.496094 382.914062 918.570312 375.011719 932.636719 360.945312 C 946.703125 346.878906 954.605469 327.804688 954.605469 307.914062 L 954.605469 223.742188 C 954.605469 203.851562 946.703125 184.777344 932.636719 170.710938 C 918.570312 156.644531 899.496094 148.742188 879.605469 148.742188 Z M 879.605469 148.742188 " clip-rule="nonzero"/></clipPath><clipPath id="42db05958e"><path d="M 435.734375 334.550781 C 435.734375 359.820312 456.964844 380.136719 482.558594 378.632812 C 503.972656 377.375 521.667969 360.445312 523.824219 339.101562 C 524 337.382812 524.074219 335.679688 524.054688 334.003906 C 523.90625 322.027344 527.933594 310.378906 536.136719 301.652344 L 586.875 247.671875 C 595.90625 238.066406 608.796875 233.445312 621.964844 234.160156 C 622.761719 234.203125 623.570312 234.226562 624.378906 234.226562 C 625.917969 234.226562 627.441406 234.148438 628.941406 233.992188 C 642.078125 232.640625 655.066406 237.726562 664.425781 247.042969 L 712.367188 294.765625 C 721.90625 304.261719 726.613281 317.488281 725.511719 330.898438 C 725.367188 332.664062 725.324219 334.460938 725.394531 336.28125 C 726.253906 358.722656 744.332031 377.257812 766.753906 378.625 C 792.398438 380.191406 813.683594 359.855469 813.683594 334.550781 C 813.683594 333.074219 813.609375 331.613281 813.46875 330.171875 C 812.167969 317 817.234375 303.992188 826.589844 294.636719 L 874.097656 247.128906 C 883.601562 237.625 896.828125 232.921875 910.222656 234.066406 C 912.015625 234.21875 913.839844 234.265625 915.6875 234.195312 C 938.15625 233.359375 956.722656 215.261719 958.085938 192.820312 C 959.640625 167.179688 939.308594 145.902344 914.007812 145.902344 C 912.53125 145.902344 911.066406 145.976562 909.628906 146.117188 C 896.457031 147.417969 883.449219 142.355469 874.089844 133 L 826.585938 85.496094 C 817.082031 75.988281 812.386719 62.761719 813.523438 49.367188 C 813.800781 46.097656 813.722656 42.730469 813.25 39.296875 C 810.613281 20.257812 795.535156 4.886719 776.539062 1.964844 C 746.675781 -2.632812 721.316406 22.722656 725.902344 52.582031 C 728.820312 71.582031 744.1875 86.664062 763.226562 89.308594 C 766.664062 89.785156 770.039062 89.863281 773.3125 89.585938 C 786.707031 88.441406 799.933594 93.144531 809.4375 102.648438 L 856.941406 150.15625 C 866.300781 159.511719 871.363281 172.519531 870.0625 185.691406 C 869.917969 187.132812 869.847656 188.59375 869.847656 190.070312 C 869.847656 191.546875 869.917969 193.011719 870.0625 194.449219 C 871.363281 207.621094 866.300781 220.628906 856.941406 229.984375 L 809.4375 277.488281 C 800.078125 286.847656 787.074219 291.910156 773.902344 290.609375 C 772.460938 290.464844 771 290.394531 769.523438 290.394531 C 767.984375 290.394531 766.460938 290.472656 764.960938 290.628906 C 751.824219 291.980469 738.839844 286.894531 729.480469 277.578125 L 681.539062 229.855469 C 672 220.359375 667.296875 207.125 668.394531 193.710938 C 668.714844 189.769531 668.519531 185.683594 667.734375 181.519531 C 664.433594 163.964844 650.421875 149.980469 632.859375 146.703125 C 628.679688 145.921875 624.582031 145.734375 620.632812 146.070312 C 607.222656 147.199219 593.984375 142.523438 584.46875 133.007812 L 536.960938 85.5 C 527.457031 75.996094 522.753906 62.769531 523.898438 49.378906 C 524.050781 47.582031 524.09375 45.753906 524.027344 43.902344 C 523.1875 21.433594 505.089844 2.871094 482.648438 1.507812 C 457.011719 -0.0429688 435.738281 20.289062 435.738281 45.585938 C 435.738281 47.0625 435.808594 48.523438 435.953125 49.964844 C 437.253906 63.136719 432.191406 76.144531 422.832031 85.5 L 375.328125 133.007812 C 365.96875 142.363281 352.960938 147.425781 339.789062 146.128906 C 338.351562 145.984375 336.890625 145.914062 335.414062 145.914062 C 333.875 145.914062 332.351562 145.992188 330.851562 146.148438 C 317.714844 147.5 304.726562 142.414062 295.367188 133.097656 L 247.425781 85.371094 C 237.886719 75.878906 233.179688 62.648438 234.28125 49.238281 C 234.425781 47.476562 234.46875 45.679688 234.398438 43.863281 C 233.539062 21.417969 215.460938 2.886719 193.042969 1.515625 C 167.398438 -0.0507812 146.109375 20.285156 146.109375 45.589844 C 146.109375 47.066406 146.183594 48.53125 146.324219 49.96875 C 147.625 63.140625 142.5625 76.148438 133.207031 85.503906 L 85.699219 133.011719 C 76.191406 142.519531 62.96875 147.214844 49.574219 146.074219 C 47.78125 145.921875 45.953125 145.875 44.105469 145.945312 C 21.640625 146.78125 3.074219 164.875 1.710938 187.316406 C 0.152344 212.957031 20.484375 234.234375 45.789062 234.234375 C 47.265625 234.234375 48.726562 234.164062 50.164062 234.019531 C 63.335938 232.71875 76.34375 237.78125 85.703125 247.140625 L 133.210938 294.648438 C 142.714844 304.152344 147.410156 317.378906 146.273438 330.777344 C 145.996094 334.042969 146.074219 337.414062 146.546875 340.847656 C 149.183594 359.886719 164.261719 375.257812 183.257812 378.179688 C 213.125 382.773438 238.484375 357.414062 233.894531 327.550781 C 230.972656 308.554688 215.601562 293.476562 196.5625 290.835938 C 193.128906 290.359375 189.753906 290.28125 186.484375 290.558594 C 173.089844 291.703125 159.863281 287.003906 150.359375 277.496094 L 102.855469 229.992188 C 93.496094 220.632812 88.433594 207.625 89.734375 194.453125 C 89.875 193.015625 89.949219 191.554688 89.949219 190.078125 C 89.949219 188.601562 89.875 187.140625 89.734375 185.699219 C 88.433594 172.527344 93.496094 159.519531 102.855469 150.164062 L 150.359375 102.660156 C 159.71875 93.300781 172.722656 88.238281 185.894531 89.539062 C 187.335938 89.683594 188.796875 89.753906 190.273438 89.753906 C 191.816406 89.753906 193.335938 89.675781 194.835938 89.519531 C 207.972656 88.167969 220.957031 93.253906 230.316406 102.574219 L 278.257812 150.296875 C 287.808594 159.804688 292.480469 173.054688 291.398438 186.488281 C 291.140625 189.675781 291.226562 192.957031 291.683594 196.300781 C 294.300781 215.40625 309.445312 230.800781 328.507812 233.710938 C 331.550781 234.175781 334.542969 234.324219 337.460938 234.191406 C 350.996094 233.570312 364.207031 238.417969 373.488281 248.289062 L 423.492188 301.484375 C 431.6875 310.203125 435.960938 321.804688 435.746094 333.765625 C 435.738281 334.019531 435.734375 334.285156 435.734375 334.550781 Z M 379.574219 190.066406 C 379.574219 188.589844 379.5 187.128906 379.359375 185.6875 C 378.058594 172.515625 383.121094 159.511719 392.480469 150.152344 L 439.980469 102.648438 C 449.339844 93.289062 462.347656 88.226562 475.519531 89.527344 C 476.960938 89.667969 478.417969 89.742188 479.894531 89.742188 C 481.371094 89.742188 482.832031 89.667969 484.273438 89.527344 C 497.445312 88.226562 510.453125 93.289062 519.808594 102.648438 L 567.3125 150.152344 C 576.671875 159.511719 581.734375 172.515625 580.433594 185.6875 C 580.292969 187.128906 580.21875 188.589844 580.21875 190.066406 C 580.21875 191.71875 580.3125 193.355469 580.488281 194.960938 C 581.960938 208.285156 578.054688 221.640625 568.875 231.40625 L 525.945312 277.082031 C 515.941406 287.722656 501.359375 293.265625 486.9375 290.949219 C 484.644531 290.578125 482.292969 290.386719 479.898438 290.386719 C 477.5 290.386719 475.148438 290.578125 472.855469 290.949219 C 458.433594 293.265625 443.851562 287.722656 433.847656 277.082031 L 390.917969 231.40625 C 381.738281 221.640625 377.832031 208.285156 379.304688 194.960938 C 379.480469 193.355469 379.574219 191.71875 379.574219 190.066406 Z M 379.574219 190.066406 " clip-rule="nonzero"/></clipPath><linearGradient x1="42.638288" gradientTransform="matrix(0, 1.91309, -1.91309, 0, 958.168222, 1.421626)" y1="282.313009" x2="281.601399" gradientUnits="userSpaceOnUse" y2="144.347751" id="cde2205928"><stop stop-opacity="1" stop-color="rgb(2.139282%, 70.144653%, 53.681946%)" offset="0"/><stop stop-opacity="1" stop-color="rgb(2.16217%, 70.092773%, 53.842163%)" offset="0.0078125"/><stop stop-opacity="1" stop-color="rgb(2.209473%, 69.99054%, 54.164124%)" offset="0.015625"/><stop stop-opacity="1" stop-color="rgb(2.255249%, 69.88678%, 54.486084%)" offset="0.0234375"/><stop stop-opacity="1" stop-color="rgb(2.301025%, 69.784546%, 54.808044%)" offset="0.03125"/><stop stop-opacity="1" stop-color="rgb(2.348328%, 69.682312%, 55.128479%)" offset="0.0390625"/><stop stop-opacity="1" stop-color="rgb(2.394104%, 69.578552%, 55.450439%)" offset="0.046875"/><stop stop-opacity="1" stop-color="rgb(2.441406%, 69.476318%, 55.7724%)" offset="0.0546875"/><stop stop-opacity="1" stop-color="rgb(2.487183%, 69.372559%, 56.09436%)" offset="0.0625"/><stop stop-opacity="1" stop-color="rgb(2.532959%, 69.270325%, 56.416321%)" offset="0.0703125"/><stop stop-opacity="1" stop-color="rgb(2.580261%, 69.166565%, 56.738281%)" offset="0.078125"/><stop stop-opacity="1" stop-color="rgb(2.626038%, 69.064331%, 57.060242%)" offset="0.0859375"/><stop stop-opacity="1" stop-color="rgb(2.671814%, 68.960571%, 57.382202%)" offset="0.09375"/><stop stop-opacity="1" stop-color="rgb(2.719116%, 68.858337%, 57.704163%)" offset="0.101562"/><stop stop-opacity="1" stop-color="rgb(2.764893%, 68.754578%, 58.026123%)" offset="0.109375"/><stop stop-opacity="1" stop-color="rgb(2.812195%, 68.652344%, 58.346558%)" offset="0.117187"/><stop stop-opacity="1" stop-color="rgb(2.857971%, 68.548584%, 58.668518%)" offset="0.125"/><stop stop-opacity="1" stop-color="rgb(2.903748%, 68.44635%, 58.990479%)" offset="0.132812"/><stop stop-opacity="1" stop-color="rgb(2.95105%, 68.344116%, 59.312439%)" offset="0.140625"/><stop stop-opacity="1" stop-color="rgb(2.996826%, 68.240356%, 59.634399%)" offset="0.148437"/><stop stop-opacity="1" stop-color="rgb(3.042603%, 68.138123%, 59.95636%)" offset="0.15625"/><stop stop-opacity="1" stop-color="rgb(3.089905%, 68.034363%, 60.27832%)" offset="0.164062"/><stop stop-opacity="1" stop-color="rgb(3.135681%, 67.932129%, 60.600281%)" offset="0.171875"/><stop stop-opacity="1" stop-color="rgb(3.182983%, 67.828369%, 60.922241%)" offset="0.179687"/><stop stop-opacity="1" stop-color="rgb(3.22876%, 67.726135%, 61.242676%)" offset="0.1875"/><stop stop-opacity="1" stop-color="rgb(3.274536%, 67.622375%, 61.564636%)" offset="0.195312"/><stop stop-opacity="1" stop-color="rgb(3.321838%, 67.520142%, 61.886597%)" offset="0.203125"/><stop stop-opacity="1" stop-color="rgb(3.367615%, 67.416382%, 62.208557%)" offset="0.210937"/><stop stop-opacity="1" stop-color="rgb(3.413391%, 67.314148%, 62.530518%)" offset="0.21875"/><stop stop-opacity="1" stop-color="rgb(3.460693%, 67.210388%, 62.852478%)" offset="0.226562"/><stop stop-opacity="1" stop-color="rgb(3.50647%, 67.108154%, 63.174438%)" offset="0.234375"/><stop stop-opacity="1" stop-color="rgb(3.553772%, 67.00592%, 63.496399%)" offset="0.242187"/><stop stop-opacity="1" stop-color="rgb(3.599548%, 66.902161%, 63.818359%)" offset="0.25"/><stop stop-opacity="1" stop-color="rgb(3.645325%, 66.799927%, 64.14032%)" offset="0.257812"/><stop stop-opacity="1" stop-color="rgb(3.692627%, 66.696167%, 64.460754%)" offset="0.265625"/><stop stop-opacity="1" stop-color="rgb(3.738403%, 66.593933%, 64.782715%)" offset="0.273437"/><stop stop-opacity="1" stop-color="rgb(3.78418%, 66.490173%, 65.104675%)" offset="0.28125"/><stop stop-opacity="1" stop-color="rgb(3.831482%, 66.387939%, 65.426636%)" offset="0.289062"/><stop stop-opacity="1" stop-color="rgb(3.877258%, 66.28418%, 65.748596%)" offset="0.296875"/><stop stop-opacity="1" stop-color="rgb(3.924561%, 66.181946%, 66.070557%)" offset="0.304687"/><stop stop-opacity="1" stop-color="rgb(3.970337%, 66.078186%, 66.392517%)" offset="0.3125"/><stop stop-opacity="1" stop-color="rgb(4.016113%, 65.975952%, 66.714478%)" offset="0.320313"/><stop stop-opacity="1" stop-color="rgb(4.063416%, 65.873718%, 67.036438%)" offset="0.328125"/><stop stop-opacity="1" stop-color="rgb(4.109192%, 65.769958%, 67.358398%)" offset="0.335938"/><stop stop-opacity="1" stop-color="rgb(4.154968%, 65.667725%, 67.678833%)" offset="0.34375"/><stop stop-opacity="1" stop-color="rgb(4.202271%, 65.563965%, 68.000793%)" offset="0.351562"/><stop stop-opacity="1" stop-color="rgb(4.248047%, 65.461731%, 68.322754%)" offset="0.359375"/><stop stop-opacity="1" stop-color="rgb(4.295349%, 65.357971%, 68.644714%)" offset="0.367187"/><stop stop-opacity="1" stop-color="rgb(4.341125%, 65.255737%, 68.966675%)" offset="0.375"/><stop stop-opacity="1" stop-color="rgb(4.386902%, 65.151978%, 69.288635%)" offset="0.382812"/><stop stop-opacity="1" stop-color="rgb(4.434204%, 65.049744%, 69.610596%)" offset="0.383942"/><stop stop-opacity="1" stop-color="rgb(4.457092%, 64.997864%, 69.772339%)" offset="0.390625"/><stop stop-opacity="1" stop-color="rgb(4.47998%, 64.945984%, 69.932556%)" offset="0.398437"/><stop stop-opacity="1" stop-color="rgb(4.525757%, 64.84375%, 70.254517%)" offset="0.40625"/><stop stop-opacity="1" stop-color="rgb(4.573059%, 64.73999%, 70.574951%)" offset="0.414062"/><stop stop-opacity="1" stop-color="rgb(4.618835%, 64.637756%, 70.896912%)" offset="0.421875"/><stop stop-opacity="1" stop-color="rgb(4.666138%, 64.535522%, 71.218872%)" offset="0.429687"/><stop stop-opacity="1" stop-color="rgb(4.711914%, 64.431763%, 71.540833%)" offset="0.4375"/><stop stop-opacity="1" stop-color="rgb(4.75769%, 64.329529%, 71.862793%)" offset="0.445313"/><stop stop-opacity="1" stop-color="rgb(4.804993%, 64.225769%, 72.184753%)" offset="0.453125"/><stop stop-opacity="1" stop-color="rgb(4.850769%, 64.123535%, 72.506714%)" offset="0.460938"/><stop stop-opacity="1" stop-color="rgb(4.896545%, 64.019775%, 72.828674%)" offset="0.46875"/><stop stop-opacity="1" stop-color="rgb(4.943848%, 63.917542%, 73.150635%)" offset="0.476562"/><stop stop-opacity="1" stop-color="rgb(4.989624%, 63.813782%, 73.472595%)" offset="0.484375"/><stop stop-opacity="1" stop-color="rgb(5.036926%, 63.711548%, 73.79303%)" offset="0.492187"/><stop stop-opacity="1" stop-color="rgb(5.082703%, 63.607788%, 74.11499%)" offset="0.5"/><stop stop-opacity="1" stop-color="rgb(5.128479%, 63.505554%, 74.436951%)" offset="0.507812"/><stop stop-opacity="1" stop-color="rgb(5.175781%, 63.401794%, 74.758911%)" offset="0.515625"/><stop stop-opacity="1" stop-color="rgb(5.221558%, 63.299561%, 75.080872%)" offset="0.523437"/><stop stop-opacity="1" stop-color="rgb(5.267334%, 63.197327%, 75.402832%)" offset="0.53125"/><stop stop-opacity="1" stop-color="rgb(5.314636%, 63.093567%, 75.724792%)" offset="0.539062"/><stop stop-opacity="1" stop-color="rgb(5.360413%, 62.991333%, 76.046753%)" offset="0.546875"/><stop stop-opacity="1" stop-color="rgb(5.406189%, 62.887573%, 76.368713%)" offset="0.554687"/><stop stop-opacity="1" stop-color="rgb(5.453491%, 62.785339%, 76.690674%)" offset="0.5625"/><stop stop-opacity="1" stop-color="rgb(5.499268%, 62.68158%, 77.011108%)" offset="0.570312"/><stop stop-opacity="1" stop-color="rgb(5.54657%, 62.579346%, 77.333069%)" offset="0.578125"/><stop stop-opacity="1" stop-color="rgb(5.592346%, 62.475586%, 77.655029%)" offset="0.585938"/><stop stop-opacity="1" stop-color="rgb(5.638123%, 62.373352%, 77.97699%)" offset="0.59375"/><stop stop-opacity="1" stop-color="rgb(5.685425%, 62.269592%, 78.29895%)" offset="0.601562"/><stop stop-opacity="1" stop-color="rgb(5.731201%, 62.167358%, 78.620911%)" offset="0.609375"/><stop stop-opacity="1" stop-color="rgb(5.776978%, 62.065125%, 78.942871%)" offset="0.616058"/><stop stop-opacity="1" stop-color="rgb(5.801392%, 62.013245%, 79.104614%)" offset="0.617188"/><stop stop-opacity="1" stop-color="rgb(5.82428%, 61.961365%, 79.264832%)" offset="0.625"/><stop stop-opacity="1" stop-color="rgb(5.870056%, 61.859131%, 79.586792%)" offset="0.632812"/><stop stop-opacity="1" stop-color="rgb(5.917358%, 61.755371%, 79.907227%)" offset="0.640625"/><stop stop-opacity="1" stop-color="rgb(5.963135%, 61.653137%, 80.229187%)" offset="0.648438"/><stop stop-opacity="1" stop-color="rgb(6.008911%, 61.549377%, 80.551147%)" offset="0.65625"/><stop stop-opacity="1" stop-color="rgb(6.056213%, 61.447144%, 80.873108%)" offset="0.664062"/><stop stop-opacity="1" stop-color="rgb(6.10199%, 61.343384%, 81.195068%)" offset="0.671875"/><stop stop-opacity="1" stop-color="rgb(6.147766%, 61.24115%, 81.517029%)" offset="0.679687"/><stop stop-opacity="1" stop-color="rgb(6.195068%, 61.13739%, 81.838989%)" offset="0.6875"/><stop stop-opacity="1" stop-color="rgb(6.240845%, 61.035156%, 82.16095%)" offset="0.695313"/><stop stop-opacity="1" stop-color="rgb(6.288147%, 60.931396%, 82.48291%)" offset="0.703125"/><stop stop-opacity="1" stop-color="rgb(6.333923%, 60.829163%, 82.804871%)" offset="0.710938"/><stop stop-opacity="1" stop-color="rgb(6.3797%, 60.726929%, 83.125305%)" offset="0.71875"/><stop stop-opacity="1" stop-color="rgb(6.427002%, 60.623169%, 83.447266%)" offset="0.726562"/><stop stop-opacity="1" stop-color="rgb(6.472778%, 60.520935%, 83.769226%)" offset="0.734375"/><stop stop-opacity="1" stop-color="rgb(6.518555%, 60.417175%, 84.091187%)" offset="0.742188"/><stop stop-opacity="1" stop-color="rgb(6.565857%, 60.314941%, 84.413147%)" offset="0.75"/><stop stop-opacity="1" stop-color="rgb(6.611633%, 60.211182%, 84.735107%)" offset="0.757812"/><stop stop-opacity="1" stop-color="rgb(6.658936%, 60.108948%, 85.057068%)" offset="0.765625"/><stop stop-opacity="1" stop-color="rgb(6.704712%, 60.005188%, 85.379028%)" offset="0.773438"/><stop stop-opacity="1" stop-color="rgb(6.750488%, 59.902954%, 85.700989%)" offset="0.78125"/><stop stop-opacity="1" stop-color="rgb(6.797791%, 59.799194%, 86.022949%)" offset="0.789062"/><stop stop-opacity="1" stop-color="rgb(6.843567%, 59.69696%, 86.343384%)" offset="0.796875"/><stop stop-opacity="1" stop-color="rgb(6.889343%, 59.593201%, 86.665344%)" offset="0.804687"/><stop stop-opacity="1" stop-color="rgb(6.936646%, 59.490967%, 86.987305%)" offset="0.8125"/><stop stop-opacity="1" stop-color="rgb(6.982422%, 59.388733%, 87.309265%)" offset="0.820313"/><stop stop-opacity="1" stop-color="rgb(7.029724%, 59.284973%, 87.631226%)" offset="0.828125"/><stop stop-opacity="1" stop-color="rgb(7.055664%, 59.22699%, 87.815857%)" offset="0.84375"/><stop stop-opacity="1" stop-color="rgb(7.058716%, 59.21936%, 87.838745%)" offset="0.875"/><stop stop-opacity="1" stop-color="rgb(7.058716%, 59.21936%, 87.838745%)" offset="1"/></linearGradient><clipPath id="7932799823"><path d="M 583.988281 287 L 954.753906 287 L 954.753906 521.71875 L 583.988281 521.71875 Z M 583.988281 287 " clip-rule="nonzero"/></clipPath><clipPath id="b58b8efc50"><path d="M 658.988281 525.648438 L 879.648438 525.648438 C 899.539062 525.648438 918.617188 517.746094 932.683594 503.679688 C 946.746094 489.617188 954.648438 470.539062 954.648438 450.648438 L 954.648438 362.773438 C 954.648438 342.882812 946.746094 323.804688 932.683594 309.742188 C 918.617188 295.675781 899.539062 287.773438 879.648438 287.773438 L 658.988281 287.773438 C 639.09375 287.773438 620.019531 295.675781 605.953125 309.742188 C 591.886719 323.804688 583.988281 342.882812 583.988281 362.773438 L 583.988281 450.648438 C 583.988281 470.539062 591.886719 489.617188 605.953125 503.679688 C 620.019531 517.746094 639.09375 525.648438 658.988281 525.648438 Z M 658.988281 525.648438 " clip-rule="nonzero"/></clipPath><clipPath id="b9704688e0"><path d="M 671.097656 188.5 C 671.097656 163.226562 649.871094 142.914062 624.273438 144.414062 C 602.859375 145.671875 585.164062 162.601562 583.007812 183.945312 C 582.832031 185.664062 582.761719 187.367188 582.777344 189.046875 C 582.925781 201.023438 578.898438 212.671875 570.695312 221.398438 L 519.957031 275.375 C 510.925781 284.984375 498.035156 289.601562 484.867188 288.886719 C 484.070312 288.84375 483.265625 288.824219 482.453125 288.824219 C 480.914062 288.824219 479.390625 288.902344 477.890625 289.058594 C 464.753906 290.410156 451.765625 285.324219 442.40625 276.007812 L 394.464844 228.28125 C 384.925781 218.789062 380.222656 205.558594 381.320312 192.148438 C 381.464844 190.382812 381.507812 188.589844 381.4375 186.769531 C 380.578125 164.324219 362.5 145.792969 340.082031 144.421875 C 314.433594 142.859375 293.148438 163.191406 293.148438 188.5 C 293.148438 189.976562 293.222656 191.433594 293.363281 192.875 C 294.664062 206.046875 289.601562 219.054688 280.242188 228.414062 L 232.734375 275.921875 C 223.230469 285.425781 210.003906 290.125 196.609375 288.984375 C 194.816406 288.832031 192.992188 288.785156 191.144531 288.855469 C 168.675781 289.691406 150.109375 307.789062 148.75 330.230469 C 147.191406 355.867188 167.527344 377.144531 192.824219 377.144531 C 194.304688 377.144531 195.765625 377.070312 197.203125 376.929688 C 210.375 375.628906 223.382812 380.691406 232.742188 390.050781 L 280.246094 437.554688 C 289.75 447.0625 294.449219 460.289062 293.308594 473.683594 C 293.03125 476.949219 293.109375 480.320312 293.582031 483.75 C 296.222656 502.789062 311.296875 518.164062 330.292969 521.085938 C 360.15625 525.679688 385.515625 500.328125 380.929688 470.464844 C 378.011719 451.464844 362.644531 436.386719 343.605469 433.742188 C 340.167969 433.265625 336.792969 433.183594 333.519531 433.464844 C 320.128906 434.605469 306.898438 429.90625 297.394531 420.398438 L 249.890625 372.894531 C 240.53125 363.535156 235.472656 350.527344 236.773438 337.355469 C 236.914062 335.914062 236.984375 334.457031 236.984375 332.976562 C 236.984375 331.5 236.914062 330.039062 236.773438 328.601562 C 235.472656 315.429688 240.53125 302.421875 249.890625 293.0625 L 297.394531 245.5625 C 306.753906 236.203125 319.757812 231.140625 332.929688 232.441406 C 334.371094 232.582031 335.832031 232.65625 337.308594 232.65625 C 338.847656 232.65625 340.371094 232.578125 341.871094 232.421875 C 355.007812 231.070312 367.996094 236.15625 377.351562 245.472656 L 425.296875 293.195312 C 434.832031 302.6875 439.535156 315.925781 438.4375 329.339844 C 438.117188 333.277344 438.3125 337.363281 439.097656 341.527344 C 442.398438 359.085938 456.410156 373.066406 473.972656 376.34375 C 478.152344 377.125 482.25 377.3125 486.199219 376.980469 C 499.609375 375.851562 512.851562 380.523438 522.363281 390.042969 L 569.871094 437.550781 C 579.375 447.054688 584.078125 460.277344 582.9375 473.671875 C 582.78125 475.46875 582.738281 477.296875 582.804688 479.148438 C 583.644531 501.617188 601.742188 520.179688 624.1875 521.539062 C 649.820312 523.09375 671.09375 502.761719 671.09375 477.460938 C 671.09375 475.984375 671.023438 474.523438 670.878906 473.085938 C 669.578125 459.914062 674.640625 446.90625 684 437.546875 L 731.503906 390.042969 C 740.863281 380.683594 753.871094 375.621094 767.042969 376.921875 C 768.484375 377.0625 769.941406 377.136719 771.417969 377.136719 C 772.960938 377.136719 774.480469 377.058594 775.980469 376.902344 C 789.117188 375.550781 802.105469 380.636719 811.464844 389.949219 L 859.40625 437.675781 C 868.945312 447.167969 873.652344 460.398438 872.550781 473.808594 C 872.40625 475.574219 872.367188 477.367188 872.433594 479.183594 C 873.292969 501.628906 891.371094 520.164062 913.789062 521.535156 C 939.433594 523.101562 960.722656 502.765625 960.722656 477.457031 C 960.722656 475.980469 960.648438 474.519531 960.507812 473.082031 C 959.207031 459.910156 964.269531 446.902344 973.628906 437.542969 L 1021.132812 390.039062 C 1030.640625 380.53125 1043.863281 375.832031 1057.261719 376.976562 C 1059.050781 377.128906 1060.878906 377.171875 1062.726562 377.105469 C 1085.191406 376.269531 1103.757812 358.175781 1105.121094 335.730469 C 1106.679688 310.09375 1086.347656 288.8125 1061.042969 288.8125 C 1059.566406 288.8125 1058.105469 288.886719 1056.667969 289.027344 C 1043.496094 290.328125 1030.488281 285.265625 1021.128906 275.90625 L 973.625 228.402344 C 964.117188 218.894531 959.421875 205.667969 960.5625 192.273438 C 960.839844 189.007812 960.761719 185.636719 960.285156 182.199219 C 957.648438 163.160156 942.570312 147.789062 923.574219 144.867188 C 893.707031 140.277344 868.351562 165.632812 872.9375 195.496094 C 875.859375 214.492188 891.230469 229.574219 910.269531 232.214844 C 913.707031 232.6875 917.078125 232.769531 920.347656 232.488281 C 933.742188 231.347656 946.96875 236.046875 956.472656 245.550781 L 1003.976562 293.058594 C 1013.335938 302.414062 1018.398438 315.421875 1017.097656 328.59375 C 1016.957031 330.035156 1016.882812 331.496094 1016.882812 332.972656 C 1016.882812 334.449219 1016.957031 335.910156 1017.097656 337.347656 C 1018.398438 350.519531 1013.335938 363.527344 1003.976562 372.886719 L 956.472656 420.386719 C 947.117188 429.746094 934.109375 434.808594 920.9375 433.507812 C 919.496094 433.367188 918.035156 433.292969 916.558594 433.292969 C 915.019531 433.292969 913.496094 433.371094 911.996094 433.527344 C 898.863281 434.882812 885.875 429.792969 876.515625 420.476562 L 828.574219 372.753906 C 819.023438 363.246094 814.351562 349.992188 815.433594 336.5625 C 815.691406 333.375 815.609375 330.089844 815.152344 326.746094 C 812.535156 307.644531 797.386719 292.246094 778.324219 289.339844 C 775.285156 288.875 772.289062 288.722656 769.371094 288.859375 C 755.835938 289.476562 742.625 284.632812 733.34375 274.757812 L 683.339844 221.5625 C 675.148438 212.84375 670.871094 201.246094 671.085938 189.285156 C 671.09375 189.027344 671.097656 188.761719 671.097656 188.5 Z M 727.257812 332.984375 C 727.257812 334.460938 727.332031 335.921875 727.472656 337.359375 C 728.773438 350.53125 723.710938 363.539062 714.355469 372.898438 L 666.851562 420.402344 C 657.492188 429.761719 644.484375 434.824219 631.3125 433.523438 C 629.875 433.378906 628.414062 433.308594 626.9375 433.308594 C 625.460938 433.308594 624 433.378906 622.558594 433.523438 C 609.386719 434.824219 596.382812 429.761719 587.023438 420.402344 L 539.519531 372.898438 C 530.160156 363.539062 525.097656 350.53125 526.398438 337.359375 C 526.539062 335.917969 526.613281 334.460938 526.613281 332.984375 C 526.613281 331.328125 526.519531 329.695312 526.34375 328.085938 C 524.871094 314.761719 528.777344 301.410156 537.957031 291.640625 L 580.890625 245.96875 C 590.890625 235.324219 605.472656 229.785156 619.894531 232.101562 C 622.1875 232.46875 624.539062 232.660156 626.933594 232.660156 C 629.332031 232.660156 631.683594 232.46875 633.976562 232.101562 C 648.398438 229.785156 662.980469 235.324219 672.984375 245.96875 L 715.914062 291.640625 C 725.09375 301.410156 729 314.761719 727.527344 328.089844 C 727.351562 329.695312 727.257812 331.328125 727.257812 332.984375 Z M 727.257812 332.984375 " clip-rule="nonzero"/></clipPath><linearGradient x1="-49.559881" gradientTransform="matrix(0, -1.91309, 1.91309, 0, 148.66434, 521.627261)" y1="335.543586" x2="126.051927" gradientUnits="userSpaceOnUse" y2="234.154178" id="81fe4802f8"><stop stop-opacity="1" stop-color="rgb(7.058716%, 59.21936%, 87.838745%)" offset="0"/><stop stop-opacity="1" stop-color="rgb(7.058716%, 59.21936%, 87.838745%)" offset="0.03125"/><stop stop-opacity="1" stop-color="rgb(7.194519%, 59.208679%, 87.809753%)" offset="0.046875"/><stop stop-opacity="1" stop-color="rgb(7.495117%, 59.184265%, 87.744141%)" offset="0.0625"/><stop stop-opacity="1" stop-color="rgb(7.823181%, 59.156799%, 87.670898%)" offset="0.078125"/><stop stop-opacity="1" stop-color="rgb(8.152771%, 59.130859%, 87.599182%)" offset="0.09375"/><stop stop-opacity="1" stop-color="rgb(8.482361%, 59.103394%, 87.527466%)" offset="0.109375"/><stop stop-opacity="1" stop-color="rgb(8.811951%, 59.077454%, 87.45575%)" offset="0.125"/><stop stop-opacity="1" stop-color="rgb(9.140015%, 59.051514%, 87.384033%)" offset="0.140625"/><stop stop-opacity="1" stop-color="rgb(9.469604%, 59.024048%, 87.312317%)" offset="0.15625"/><stop stop-opacity="1" stop-color="rgb(9.799194%, 58.998108%, 87.240601%)" offset="0.171875"/><stop stop-opacity="1" stop-color="rgb(10.128784%, 58.972168%, 87.168884%)" offset="0.1875"/><stop stop-opacity="1" stop-color="rgb(10.456848%, 58.944702%, 87.097168%)" offset="0.203125"/><stop stop-opacity="1" stop-color="rgb(10.786438%, 58.918762%, 87.023926%)" offset="0.21875"/><stop stop-opacity="1" stop-color="rgb(11.116028%, 58.891296%, 86.952209%)" offset="0.234375"/><stop stop-opacity="1" stop-color="rgb(11.445618%, 58.865356%, 86.880493%)" offset="0.25"/><stop stop-opacity="1" stop-color="rgb(11.773682%, 58.839417%, 86.808777%)" offset="0.265625"/><stop stop-opacity="1" stop-color="rgb(12.103271%, 58.811951%, 86.737061%)" offset="0.28125"/><stop stop-opacity="1" stop-color="rgb(12.432861%, 58.786011%, 86.665344%)" offset="0.296875"/><stop stop-opacity="1" stop-color="rgb(12.762451%, 58.758545%, 86.593628%)" offset="0.3125"/><stop stop-opacity="1" stop-color="rgb(13.090515%, 58.732605%, 86.521912%)" offset="0.328125"/><stop stop-opacity="1" stop-color="rgb(13.420105%, 58.706665%, 86.450195%)" offset="0.34375"/><stop stop-opacity="1" stop-color="rgb(13.749695%, 58.679199%, 86.378479%)" offset="0.359375"/><stop stop-opacity="1" stop-color="rgb(14.079285%, 58.653259%, 86.305237%)" offset="0.375"/><stop stop-opacity="1" stop-color="rgb(14.407349%, 58.625793%, 86.233521%)" offset="0.390625"/><stop stop-opacity="1" stop-color="rgb(14.736938%, 58.599854%, 86.161804%)" offset="0.40625"/><stop stop-opacity="1" stop-color="rgb(15.066528%, 58.573914%, 86.090088%)" offset="0.421875"/><stop stop-opacity="1" stop-color="rgb(15.396118%, 58.546448%, 86.018372%)" offset="0.4375"/><stop stop-opacity="1" stop-color="rgb(15.724182%, 58.520508%, 85.946655%)" offset="0.453125"/><stop stop-opacity="1" stop-color="rgb(16.053772%, 58.493042%, 85.874939%)" offset="0.46875"/><stop stop-opacity="1" stop-color="rgb(16.383362%, 58.467102%, 85.803223%)" offset="0.477739"/><stop stop-opacity="1" stop-color="rgb(16.548157%, 58.454895%, 85.768127%)" offset="0.484375"/><stop stop-opacity="1" stop-color="rgb(16.712952%, 58.441162%, 85.731506%)" offset="0.5"/><stop stop-opacity="1" stop-color="rgb(17.041016%, 58.413696%, 85.658264%)" offset="0.515625"/><stop stop-opacity="1" stop-color="rgb(17.370605%, 58.387756%, 85.586548%)" offset="0.522261"/><stop stop-opacity="1" stop-color="rgb(17.5354%, 58.375549%, 85.551453%)" offset="0.53125"/><stop stop-opacity="1" stop-color="rgb(17.700195%, 58.361816%, 85.514832%)" offset="0.546875"/><stop stop-opacity="1" stop-color="rgb(18.029785%, 58.334351%, 85.443115%)" offset="0.5625"/><stop stop-opacity="1" stop-color="rgb(18.357849%, 58.308411%, 85.371399%)" offset="0.578125"/><stop stop-opacity="1" stop-color="rgb(18.687439%, 58.280945%, 85.299683%)" offset="0.59375"/><stop stop-opacity="1" stop-color="rgb(19.017029%, 58.255005%, 85.227966%)" offset="0.609375"/><stop stop-opacity="1" stop-color="rgb(19.346619%, 58.229065%, 85.15625%)" offset="0.625"/><stop stop-opacity="1" stop-color="rgb(19.674683%, 58.201599%, 85.084534%)" offset="0.640625"/><stop stop-opacity="1" stop-color="rgb(20.004272%, 58.175659%, 85.011292%)" offset="0.65625"/><stop stop-opacity="1" stop-color="rgb(20.333862%, 58.148193%, 84.939575%)" offset="0.671875"/><stop stop-opacity="1" stop-color="rgb(20.663452%, 58.122253%, 84.867859%)" offset="0.6875"/><stop stop-opacity="1" stop-color="rgb(20.991516%, 58.096313%, 84.796143%)" offset="0.703125"/><stop stop-opacity="1" stop-color="rgb(21.321106%, 58.068848%, 84.724426%)" offset="0.71875"/><stop stop-opacity="1" stop-color="rgb(21.650696%, 58.042908%, 84.65271%)" offset="0.734375"/><stop stop-opacity="1" stop-color="rgb(21.980286%, 58.015442%, 84.580994%)" offset="0.75"/><stop stop-opacity="1" stop-color="rgb(22.30835%, 57.989502%, 84.509277%)" offset="0.765625"/><stop stop-opacity="1" stop-color="rgb(22.637939%, 57.963562%, 84.437561%)" offset="0.78125"/><stop stop-opacity="1" stop-color="rgb(22.967529%, 57.936096%, 84.364319%)" offset="0.796875"/><stop stop-opacity="1" stop-color="rgb(23.297119%, 57.910156%, 84.292603%)" offset="0.8125"/><stop stop-opacity="1" stop-color="rgb(23.625183%, 57.884216%, 84.220886%)" offset="0.828125"/><stop stop-opacity="1" stop-color="rgb(23.954773%, 57.85675%, 84.14917%)" offset="0.84375"/><stop stop-opacity="1" stop-color="rgb(24.284363%, 57.830811%, 84.077454%)" offset="0.859375"/><stop stop-opacity="1" stop-color="rgb(24.613953%, 57.803345%, 84.005737%)" offset="0.875"/><stop stop-opacity="1" stop-color="rgb(24.942017%, 57.777405%, 83.934021%)" offset="0.890625"/><stop stop-opacity="1" stop-color="rgb(25.271606%, 57.751465%, 83.862305%)" offset="0.90625"/><stop stop-opacity="1" stop-color="rgb(25.601196%, 57.723999%, 83.790588%)" offset="0.921875"/><stop stop-opacity="1" stop-color="rgb(25.930786%, 57.698059%, 83.717346%)" offset="0.9375"/><stop stop-opacity="1" stop-color="rgb(26.25885%, 57.670593%, 83.64563%)" offset="0.953125"/><stop stop-opacity="1" stop-color="rgb(26.58844%, 57.644653%, 83.573914%)" offset="0.96875"/><stop stop-opacity="1" stop-color="rgb(26.91803%, 57.618713%, 83.502197%)" offset="0.984375"/><stop stop-opacity="1" stop-color="rgb(27.24762%, 57.591248%, 83.430481%)" offset="1"/></linearGradient><clipPath id="11ef4aa211"><path d="M 151.316406 0.199219 L 669.757812 0.199219 L 669.757812 225.59375 L 151.316406 225.59375 Z M 151.316406 0.199219 " clip-rule="nonzero"/></clipPath><clipPath id="9081576f64"><path d="M 594.757812 -3.777344 L 226.328125 -3.777344 C 206.4375 -3.777344 187.359375 4.125 173.292969 18.191406 C 159.230469 32.253906 151.328125 51.332031 151.328125 71.222656 L 151.328125 151.769531 C 151.328125 171.660156 159.230469 190.734375 173.292969 204.800781 C 187.359375 218.867188 206.4375 226.769531 226.328125 226.769531 L 594.757812 226.769531 C 614.652344 226.769531 633.726562 218.867188 647.792969 204.800781 C 661.859375 190.734375 669.757812 171.660156 669.757812 151.769531 L 669.757812 71.222656 C 669.757812 51.332031 661.859375 32.253906 647.792969 18.191406 C 633.726562 4.125 614.652344 -3.777344 594.757812 -3.777344 Z M 594.757812 -3.777344 " clip-rule="nonzero"/></clipPath><clipPath id="884918e18f"><path d="M 434.878906 333.371094 C 434.878906 358.644531 456.109375 378.957031 481.703125 377.457031 C 503.117188 376.199219 520.816406 359.265625 522.96875 337.925781 C 523.144531 336.207031 523.21875 334.503906 523.199219 332.824219 C 523.050781 320.847656 527.078125 309.199219 535.28125 300.472656 L 586.019531 246.496094 C 595.050781 236.886719 607.941406 232.269531 621.109375 232.980469 C 621.90625 233.027344 622.714844 233.046875 623.523438 233.046875 C 625.066406 233.046875 626.585938 232.96875 628.085938 232.8125 C 641.222656 231.460938 654.210938 236.546875 663.570312 245.863281 L 711.511719 293.589844 C 721.050781 303.082031 725.757812 316.3125 724.65625 329.722656 C 724.511719 331.488281 724.46875 333.28125 724.539062 335.101562 C 725.398438 357.546875 743.476562 376.078125 765.898438 377.449219 C 791.542969 379.011719 812.828125 358.679688 812.828125 333.371094 C 812.828125 331.894531 812.757812 330.433594 812.613281 328.996094 C 811.3125 315.824219 816.378906 302.816406 825.734375 293.457031 L 873.242188 245.949219 C 882.746094 236.445312 895.972656 231.746094 909.367188 232.886719 C 911.160156 233.039062 912.984375 233.085938 914.832031 233.015625 C 937.300781 232.179688 955.867188 214.082031 957.230469 191.640625 C 958.785156 166.003906 938.453125 144.726562 913.152344 144.726562 C 911.675781 144.726562 910.210938 144.796875 908.773438 144.941406 C 895.601562 146.242188 882.59375 141.179688 873.238281 131.820312 L 825.730469 84.316406 C 816.226562 74.808594 811.53125 61.582031 812.667969 48.1875 C 812.945312 44.917969 812.867188 41.550781 812.394531 38.117188 C 809.757812 19.078125 794.679688 3.707031 775.683594 0.785156 C 745.820312 -3.808594 720.460938 21.542969 725.046875 51.40625 C 727.964844 70.402344 743.332031 85.484375 762.371094 88.128906 C 765.8125 88.605469 769.183594 88.6875 772.457031 88.40625 C 785.851562 87.265625 799.078125 91.964844 808.582031 101.472656 L 856.085938 148.976562 C 865.445312 158.335938 870.507812 171.34375 869.207031 184.515625 C 869.0625 185.953125 868.992188 187.414062 868.992188 188.894531 C 868.992188 190.371094 869.0625 191.832031 869.207031 193.269531 C 870.507812 206.441406 865.445312 219.449219 856.085938 228.808594 L 808.582031 276.308594 C 799.226562 285.667969 786.21875 290.730469 773.046875 289.429688 C 771.605469 289.289062 770.144531 289.214844 768.667969 289.214844 C 767.128906 289.214844 765.605469 289.292969 764.105469 289.449219 C 750.972656 290.800781 737.984375 285.714844 728.625 276.398438 L 680.683594 228.675781 C 671.144531 219.179688 666.441406 205.945312 667.539062 192.53125 C 667.859375 188.59375 667.664062 184.507812 666.882812 180.339844 C 663.578125 162.785156 649.566406 148.800781 632.003906 145.527344 C 627.824219 144.746094 623.726562 144.558594 619.777344 144.890625 C 606.367188 146.019531 593.128906 141.34375 583.613281 131.828125 L 536.105469 84.320312 C 526.601562 74.816406 521.898438 61.59375 523.042969 48.199219 C 523.195312 46.402344 523.242188 44.574219 523.171875 42.722656 C 522.332031 20.253906 504.234375 1.691406 481.792969 0.332031 C 456.15625 -1.222656 434.882812 19.109375 434.882812 44.410156 C 434.882812 45.886719 434.953125 47.34375 435.097656 48.785156 C 436.398438 61.957031 431.335938 74.964844 421.976562 84.324219 L 374.472656 131.828125 C 365.113281 141.1875 352.105469 146.25 338.933594 144.949219 C 337.496094 144.808594 336.035156 144.734375 334.558594 144.734375 C 333.019531 144.734375 331.496094 144.8125 329.996094 144.96875 C 316.859375 146.320312 303.871094 141.234375 294.511719 131.917969 L 246.570312 84.195312 C 237.03125 74.699219 232.328125 61.472656 233.425781 48.0625 C 233.570312 46.296875 233.613281 44.503906 233.542969 42.683594 C 232.683594 20.242188 214.605469 1.707031 192.1875 0.335938 C 166.542969 -1.230469 145.253906 19.105469 145.253906 44.414062 C 145.253906 45.890625 145.328125 47.351562 145.46875 48.789062 C 146.769531 61.960938 141.707031 74.96875 132.351562 84.328125 L 84.84375 131.832031 C 75.339844 141.339844 62.113281 146.039062 48.71875 144.894531 C 46.925781 144.742188 45.101562 144.695312 43.25 144.765625 C 20.785156 145.601562 2.21875 163.695312 0.855469 186.136719 C -0.703125 211.777344 19.628906 233.058594 44.933594 233.058594 C 46.410156 233.058594 47.871094 232.984375 49.308594 232.84375 C 62.480469 231.542969 75.488281 236.605469 84.847656 245.960938 L 132.355469 293.46875 C 141.859375 302.976562 146.554688 316.203125 145.417969 329.597656 C 145.140625 332.863281 145.21875 336.234375 145.691406 339.667969 C 148.328125 358.707031 163.40625 374.082031 182.402344 377 C 212.269531 381.59375 237.628906 356.238281 233.039062 326.375 C 230.117188 307.375 214.746094 292.296875 195.707031 289.65625 C 192.273438 289.179688 188.898438 289.101562 185.628906 289.382812 C 172.234375 290.523438 159.007812 285.824219 149.503906 276.320312 L 102 228.8125 C 92.640625 219.453125 87.578125 206.449219 88.878906 193.277344 C 89.019531 191.835938 89.09375 190.375 89.09375 188.898438 C 89.09375 187.421875 89.019531 185.960938 88.878906 184.523438 C 87.578125 171.351562 92.640625 158.34375 102 148.984375 L 149.503906 101.480469 C 158.863281 92.125 171.867188 87.0625 185.039062 88.363281 C 186.480469 88.503906 187.941406 88.578125 189.417969 88.578125 C 190.960938 88.578125 192.480469 88.5 193.980469 88.34375 C 207.117188 86.988281 220.101562 92.078125 229.460938 101.394531 L 277.40625 149.117188 C 286.953125 158.625 291.625 171.878906 290.542969 185.308594 C 290.285156 188.496094 290.371094 191.78125 290.828125 195.125 C 293.445312 214.226562 308.589844 229.621094 327.652344 232.53125 C 330.695312 232.996094 333.6875 233.148438 336.605469 233.011719 C 350.140625 232.394531 363.351562 237.238281 372.632812 247.113281 L 422.636719 300.308594 C 430.832031 309.027344 435.105469 320.625 434.890625 332.585938 C 434.882812 332.84375 434.878906 333.109375 434.878906 333.371094 Z M 378.71875 188.886719 C 378.71875 187.410156 378.644531 185.949219 378.503906 184.511719 C 377.203125 171.339844 382.265625 158.332031 391.625 148.972656 L 439.125 101.46875 C 448.484375 92.109375 461.492188 87.046875 474.664062 88.347656 C 476.105469 88.492188 477.5625 88.5625 479.039062 88.5625 C 480.515625 88.5625 481.976562 88.492188 483.417969 88.347656 C 496.589844 87.046875 509.597656 92.109375 518.953125 101.46875 L 566.457031 148.972656 C 575.816406 158.332031 580.878906 171.339844 579.578125 184.511719 C 579.4375 185.949219 579.363281 187.410156 579.363281 188.886719 C 579.363281 190.542969 579.457031 192.175781 579.632812 193.78125 C 581.109375 207.109375 577.199219 220.460938 568.019531 230.230469 L 525.089844 275.902344 C 515.085938 286.546875 500.503906 292.085938 486.082031 289.769531 C 483.789062 289.402344 481.4375 289.210938 479.042969 289.210938 C 476.644531 289.210938 474.292969 289.402344 472 289.769531 C 457.578125 292.085938 442.996094 286.546875 432.992188 275.902344 L 390.0625 230.230469 C 380.882812 220.460938 376.976562 207.109375 378.449219 193.78125 C 378.625 192.175781 378.71875 190.542969 378.71875 188.886719 Z M 378.71875 188.886719 " clip-rule="nonzero"/></clipPath><linearGradient x1="-49.540602" gradientTransform="matrix(0, 1.91309, -1.91309, 0, 957.312862, 0.243452)" y1="335.532455" x2="156.165054" gradientUnits="userSpaceOnUse" y2="216.768375" id="51d587533c"><stop stop-opacity="1" stop-color="rgb(0%, 74.899292%, 38.819885%)" offset="0"/><stop stop-opacity="1" stop-color="rgb(0.00457764%, 74.885559%, 38.859558%)" offset="0.03125"/><stop stop-opacity="1" stop-color="rgb(0.0305176%, 74.829102%, 39.039612%)" offset="0.0390625"/><stop stop-opacity="1" stop-color="rgb(0.0701904%, 74.740601%, 39.315796%)" offset="0.046875"/><stop stop-opacity="1" stop-color="rgb(0.109863%, 74.6521%, 39.593506%)" offset="0.0546875"/><stop stop-opacity="1" stop-color="rgb(0.151062%, 74.563599%, 39.86969%)" offset="0.0625"/><stop stop-opacity="1" stop-color="rgb(0.190735%, 74.475098%, 40.1474%)" offset="0.0703125"/><stop stop-opacity="1" stop-color="rgb(0.230408%, 74.385071%, 40.423584%)" offset="0.078125"/><stop stop-opacity="1" stop-color="rgb(0.270081%, 74.29657%, 40.701294%)" offset="0.0859375"/><stop stop-opacity="1" stop-color="rgb(0.309753%, 74.208069%, 40.977478%)" offset="0.09375"/><stop stop-opacity="1" stop-color="rgb(0.349426%, 74.119568%, 41.255188%)" offset="0.101563"/><stop stop-opacity="1" stop-color="rgb(0.390625%, 74.031067%, 41.531372%)" offset="0.109375"/><stop stop-opacity="1" stop-color="rgb(0.430298%, 73.942566%, 41.809082%)" offset="0.117188"/><stop stop-opacity="1" stop-color="rgb(0.469971%, 73.854065%, 42.086792%)" offset="0.125"/><stop stop-opacity="1" stop-color="rgb(0.509644%, 73.765564%, 42.362976%)" offset="0.132812"/><stop stop-opacity="1" stop-color="rgb(0.549316%, 73.677063%, 42.640686%)" offset="0.140625"/><stop stop-opacity="1" stop-color="rgb(0.588989%, 73.588562%, 42.91687%)" offset="0.148438"/><stop stop-opacity="1" stop-color="rgb(0.628662%, 73.500061%, 43.19458%)" offset="0.15625"/><stop stop-opacity="1" stop-color="rgb(0.669861%, 73.41156%, 43.470764%)" offset="0.164063"/><stop stop-opacity="1" stop-color="rgb(0.709534%, 73.323059%, 43.748474%)" offset="0.171875"/><stop stop-opacity="1" stop-color="rgb(0.749207%, 73.234558%, 44.024658%)" offset="0.179688"/><stop stop-opacity="1" stop-color="rgb(0.788879%, 73.144531%, 44.302368%)" offset="0.1875"/><stop stop-opacity="1" stop-color="rgb(0.828552%, 73.05603%, 44.578552%)" offset="0.195313"/><stop stop-opacity="1" stop-color="rgb(0.868225%, 72.967529%, 44.856262%)" offset="0.203125"/><stop stop-opacity="1" stop-color="rgb(0.907898%, 72.879028%, 45.133972%)" offset="0.210938"/><stop stop-opacity="1" stop-color="rgb(0.949097%, 72.790527%, 45.410156%)" offset="0.21875"/><stop stop-opacity="1" stop-color="rgb(0.98877%, 72.702026%, 45.687866%)" offset="0.226563"/><stop stop-opacity="1" stop-color="rgb(1.028442%, 72.613525%, 45.96405%)" offset="0.234375"/><stop stop-opacity="1" stop-color="rgb(1.068115%, 72.525024%, 46.24176%)" offset="0.242188"/><stop stop-opacity="1" stop-color="rgb(1.107788%, 72.436523%, 46.517944%)" offset="0.25"/><stop stop-opacity="1" stop-color="rgb(1.147461%, 72.348022%, 46.795654%)" offset="0.257812"/><stop stop-opacity="1" stop-color="rgb(1.187134%, 72.259521%, 47.071838%)" offset="0.265625"/><stop stop-opacity="1" stop-color="rgb(1.228333%, 72.171021%, 47.349548%)" offset="0.273438"/><stop stop-opacity="1" stop-color="rgb(1.268005%, 72.08252%, 47.625732%)" offset="0.28125"/><stop stop-opacity="1" stop-color="rgb(1.307678%, 71.994019%, 47.903442%)" offset="0.289063"/><stop stop-opacity="1" stop-color="rgb(1.347351%, 71.903992%, 48.181152%)" offset="0.296875"/><stop stop-opacity="1" stop-color="rgb(1.387024%, 71.815491%, 48.457336%)" offset="0.304688"/><stop stop-opacity="1" stop-color="rgb(1.426697%, 71.72699%, 48.735046%)" offset="0.3125"/><stop stop-opacity="1" stop-color="rgb(1.46637%, 71.638489%, 49.01123%)" offset="0.320313"/><stop stop-opacity="1" stop-color="rgb(1.507568%, 71.549988%, 49.28894%)" offset="0.328125"/><stop stop-opacity="1" stop-color="rgb(1.547241%, 71.461487%, 49.565125%)" offset="0.335938"/><stop stop-opacity="1" stop-color="rgb(1.586914%, 71.372986%, 49.842834%)" offset="0.34375"/><stop stop-opacity="1" stop-color="rgb(1.626587%, 71.284485%, 50.119019%)" offset="0.351562"/><stop stop-opacity="1" stop-color="rgb(1.66626%, 71.195984%, 50.396729%)" offset="0.359375"/><stop stop-opacity="1" stop-color="rgb(1.705933%, 71.107483%, 50.672913%)" offset="0.367188"/><stop stop-opacity="1" stop-color="rgb(1.745605%, 71.018982%, 50.950623%)" offset="0.375"/><stop stop-opacity="1" stop-color="rgb(1.786804%, 70.930481%, 51.228333%)" offset="0.382812"/><stop stop-opacity="1" stop-color="rgb(1.826477%, 70.84198%, 51.504517%)" offset="0.390625"/><stop stop-opacity="1" stop-color="rgb(1.86615%, 70.753479%, 51.782227%)" offset="0.398438"/><stop stop-opacity="1" stop-color="rgb(1.905823%, 70.663452%, 52.058411%)" offset="0.40625"/><stop stop-opacity="1" stop-color="rgb(1.945496%, 70.574951%, 52.336121%)" offset="0.414063"/><stop stop-opacity="1" stop-color="rgb(1.985168%, 70.48645%, 52.612305%)" offset="0.421875"/><stop stop-opacity="1" stop-color="rgb(2.026367%, 70.397949%, 52.890015%)" offset="0.42956"/><stop stop-opacity="1" stop-color="rgb(2.046204%, 70.353699%, 53.02887%)" offset="0.429688"/><stop stop-opacity="1" stop-color="rgb(2.06604%, 70.309448%, 53.166199%)" offset="0.4375"/><stop stop-opacity="1" stop-color="rgb(2.105713%, 70.220947%, 53.443909%)" offset="0.445312"/><stop stop-opacity="1" stop-color="rgb(2.145386%, 70.132446%, 53.720093%)" offset="0.453125"/><stop stop-opacity="1" stop-color="rgb(2.185059%, 70.043945%, 53.997803%)" offset="0.460938"/><stop stop-opacity="1" stop-color="rgb(2.224731%, 69.955444%, 54.273987%)" offset="0.46875"/><stop stop-opacity="1" stop-color="rgb(2.264404%, 69.866943%, 54.551697%)" offset="0.476562"/><stop stop-opacity="1" stop-color="rgb(2.305603%, 69.778442%, 54.829407%)" offset="0.484375"/><stop stop-opacity="1" stop-color="rgb(2.345276%, 69.689941%, 55.105591%)" offset="0.492188"/><stop stop-opacity="1" stop-color="rgb(2.384949%, 69.60144%, 55.383301%)" offset="0.5"/><stop stop-opacity="1" stop-color="rgb(2.424622%, 69.512939%, 55.659485%)" offset="0.507812"/><stop stop-opacity="1" stop-color="rgb(2.464294%, 69.422913%, 55.937195%)" offset="0.515625"/><stop stop-opacity="1" stop-color="rgb(2.503967%, 69.334412%, 56.213379%)" offset="0.523438"/><stop stop-opacity="1" stop-color="rgb(2.54364%, 69.245911%, 56.491089%)" offset="0.53125"/><stop stop-opacity="1" stop-color="rgb(2.584839%, 69.15741%, 56.767273%)" offset="0.539062"/><stop stop-opacity="1" stop-color="rgb(2.624512%, 69.068909%, 57.044983%)" offset="0.546875"/><stop stop-opacity="1" stop-color="rgb(2.664185%, 68.980408%, 57.321167%)" offset="0.554688"/><stop stop-opacity="1" stop-color="rgb(2.703857%, 68.891907%, 57.598877%)" offset="0.5625"/><stop stop-opacity="1" stop-color="rgb(2.74353%, 68.803406%, 57.876587%)" offset="0.570312"/><stop stop-opacity="1" stop-color="rgb(2.783203%, 68.714905%, 58.152771%)" offset="0.57044"/><stop stop-opacity="1" stop-color="rgb(2.80304%, 68.670654%, 58.291626%)" offset="0.578125"/><stop stop-opacity="1" stop-color="rgb(2.822876%, 68.626404%, 58.430481%)" offset="0.585938"/><stop stop-opacity="1" stop-color="rgb(2.864075%, 68.537903%, 58.706665%)" offset="0.59375"/><stop stop-opacity="1" stop-color="rgb(2.903748%, 68.449402%, 58.984375%)" offset="0.601562"/><stop stop-opacity="1" stop-color="rgb(2.94342%, 68.360901%, 59.260559%)" offset="0.609375"/><stop stop-opacity="1" stop-color="rgb(2.983093%, 68.2724%, 59.538269%)" offset="0.617188"/><stop stop-opacity="1" stop-color="rgb(3.022766%, 68.183899%, 59.814453%)" offset="0.625"/><stop stop-opacity="1" stop-color="rgb(3.062439%, 68.093872%, 60.092163%)" offset="0.632812"/><stop stop-opacity="1" stop-color="rgb(3.102112%, 68.005371%, 60.368347%)" offset="0.640625"/><stop stop-opacity="1" stop-color="rgb(3.143311%, 67.91687%, 60.646057%)" offset="0.648438"/><stop stop-opacity="1" stop-color="rgb(3.182983%, 67.828369%, 60.923767%)" offset="0.65625"/><stop stop-opacity="1" stop-color="rgb(3.222656%, 67.739868%, 61.199951%)" offset="0.664062"/><stop stop-opacity="1" stop-color="rgb(3.262329%, 67.651367%, 61.477661%)" offset="0.671875"/><stop stop-opacity="1" stop-color="rgb(3.302002%, 67.562866%, 61.753845%)" offset="0.679688"/><stop stop-opacity="1" stop-color="rgb(3.341675%, 67.474365%, 62.031555%)" offset="0.6875"/><stop stop-opacity="1" stop-color="rgb(3.382874%, 67.385864%, 62.307739%)" offset="0.695312"/><stop stop-opacity="1" stop-color="rgb(3.422546%, 67.297363%, 62.585449%)" offset="0.703125"/><stop stop-opacity="1" stop-color="rgb(3.462219%, 67.208862%, 62.861633%)" offset="0.710938"/><stop stop-opacity="1" stop-color="rgb(3.501892%, 67.120361%, 63.139343%)" offset="0.71875"/><stop stop-opacity="1" stop-color="rgb(3.541565%, 67.03186%, 63.415527%)" offset="0.726562"/><stop stop-opacity="1" stop-color="rgb(3.581238%, 66.943359%, 63.693237%)" offset="0.734375"/><stop stop-opacity="1" stop-color="rgb(3.620911%, 66.853333%, 63.970947%)" offset="0.742187"/><stop stop-opacity="1" stop-color="rgb(3.662109%, 66.764832%, 64.247131%)" offset="0.75"/><stop stop-opacity="1" stop-color="rgb(3.701782%, 66.676331%, 64.524841%)" offset="0.757813"/><stop stop-opacity="1" stop-color="rgb(3.741455%, 66.58783%, 64.801025%)" offset="0.765625"/><stop stop-opacity="1" stop-color="rgb(3.781128%, 66.499329%, 65.078735%)" offset="0.773438"/><stop stop-opacity="1" stop-color="rgb(3.820801%, 66.410828%, 65.354919%)" offset="0.78125"/><stop stop-opacity="1" stop-color="rgb(3.860474%, 66.322327%, 65.632629%)" offset="0.789062"/><stop stop-opacity="1" stop-color="rgb(3.900146%, 66.233826%, 65.908813%)" offset="0.796875"/><stop stop-opacity="1" stop-color="rgb(3.941345%, 66.145325%, 66.186523%)" offset="0.804688"/><stop stop-opacity="1" stop-color="rgb(3.981018%, 66.056824%, 66.462708%)" offset="0.8125"/><stop stop-opacity="1" stop-color="rgb(4.020691%, 65.968323%, 66.740417%)" offset="0.820312"/><stop stop-opacity="1" stop-color="rgb(4.060364%, 65.879822%, 67.018127%)" offset="0.828125"/><stop stop-opacity="1" stop-color="rgb(4.100037%, 65.791321%, 67.294312%)" offset="0.835937"/><stop stop-opacity="1" stop-color="rgb(4.139709%, 65.70282%, 67.572021%)" offset="0.84375"/><stop stop-opacity="1" stop-color="rgb(4.179382%, 65.612793%, 67.848206%)" offset="0.851563"/><stop stop-opacity="1" stop-color="rgb(4.220581%, 65.524292%, 68.125916%)" offset="0.859375"/><stop stop-opacity="1" stop-color="rgb(4.260254%, 65.435791%, 68.4021%)" offset="0.867188"/><stop stop-opacity="1" stop-color="rgb(4.299927%, 65.34729%, 68.67981%)" offset="0.875"/><stop stop-opacity="1" stop-color="rgb(4.3396%, 65.258789%, 68.955994%)" offset="0.882812"/><stop stop-opacity="1" stop-color="rgb(4.379272%, 65.170288%, 69.233704%)" offset="0.890625"/><stop stop-opacity="1" stop-color="rgb(4.418945%, 65.081787%, 69.509888%)" offset="0.898438"/><stop stop-opacity="1" stop-color="rgb(4.458618%, 64.993286%, 69.787598%)" offset="0.90625"/><stop stop-opacity="1" stop-color="rgb(4.499817%, 64.904785%, 70.065308%)" offset="0.914062"/><stop stop-opacity="1" stop-color="rgb(4.53949%, 64.816284%, 70.341492%)" offset="0.921875"/><stop stop-opacity="1" stop-color="rgb(4.579163%, 64.727783%, 70.619202%)" offset="0.929687"/><stop stop-opacity="1" stop-color="rgb(4.618835%, 64.639282%, 70.895386%)" offset="0.9375"/><stop stop-opacity="1" stop-color="rgb(4.658508%, 64.550781%, 71.173096%)" offset="0.945312"/><stop stop-opacity="1" stop-color="rgb(4.698181%, 64.46228%, 71.44928%)" offset="0.953125"/><stop stop-opacity="1" stop-color="rgb(4.737854%, 64.372253%, 71.72699%)" offset="0.960938"/><stop stop-opacity="1" stop-color="rgb(4.779053%, 64.283752%, 72.003174%)" offset="0.96875"/><stop stop-opacity="1" stop-color="rgb(4.818726%, 64.195251%, 72.280884%)" offset="0.976562"/><stop stop-opacity="1" stop-color="rgb(4.858398%, 64.10675%, 72.557068%)" offset="0.984375"/><stop stop-opacity="1" stop-color="rgb(4.898071%, 64.01825%, 72.834778%)" offset="0.992188"/><stop stop-opacity="1" stop-color="rgb(4.937744%, 63.929749%, 73.112488%)" offset="1"/></linearGradient><clipPath id="f124568ea1"><rect x="0" width="1106" y="0" height="522"/></clipPath></defs><g clip-path="url(#2abb8a9a6b)"><g clip-path="url(#ba0ac78217)"><g transform="matrix(1, 0, 0, 1, 139, 213)"><g clip-path="url(#7c49436a7c)"><g clip-path="url(#3d305964e5)"><g clip-path="url(#384aa9d293)"><path fill="#b8daef" d="M 0.8125 0.0351562 L 1221.570312 0.0351562 L 1221.570312 1073.964844 L 0.8125 1073.964844 Z M 0.8125 0.0351562 " fill-opacity="1" fill-rule="nonzero"/></g></g></g></g></g></g><g transform="matrix(1, 0, 0, 1, 197, 391)"><g clip-path="url(#f124568ea1)"><g clip-path="url(#a7f4d5f1d4)"><g clip-path="url(#cb0e648c2d)"><g clip-path="url(#42db05958e)"><path fill="url(#cde2205928)" d="M 954.605469 148.742188 L 304.191406 148.742188 L 304.191406 382.773438 L 954.605469 382.773438 Z M 954.605469 148.742188 " fill-rule="nonzero"/></g></g></g><g clip-path="url(#7932799823)"><g clip-path="url(#b58b8efc50)"><g clip-path="url(#b9704688e0)"><path fill="url(#81fe4802f8)" d="M 583.988281 521.71875 L 954.648438 521.71875 L 954.648438 287.773438 L 583.988281 287.773438 Z M 583.988281 521.71875 " fill-rule="nonzero"/></g></g></g><g clip-path="url(#11ef4aa211)"><g clip-path="url(#9081576f64)"><g clip-path="url(#884918e18f)"><path fill="url(#51d587533c)" d="M 669.757812 0.199219 L 151.328125 0.199219 L 151.328125 225.59375 L 669.757812 225.59375 Z M 669.757812 0.199219 " fill-rule="nonzero"/></g></g></g></g></g></svg>